<svg width="46" height="46" viewBox="0 0 46 46" fill="none" xmlns="http://www.w3.org/2000/svg">
<circle cx="23" cy="23" r="23" transform="rotate(-180 23 23)" fill="#21201F"/>
<path d="M10 21.5C9.17157 21.5 8.5 22.1716 8.5 23C8.5 23.8284 9.17157 24.5 10 24.5L10 21.5ZM37.0607 24.0607C37.6464 23.4749 37.6464 22.5251 37.0607 21.9393L27.5147 12.3934C26.9289 11.8076 25.9792 11.8076 25.3934 12.3934C24.8076 12.9792 24.8076 13.9289 25.3934 14.5147L33.8787 23L25.3934 31.4853C24.8076 32.0711 24.8076 33.0208 25.3934 33.6066C25.9792 34.1924 26.9289 34.1924 27.5147 33.6066L37.0607 24.0607ZM10 24.5L36 24.5L36 21.5L10 21.5L10 24.5Z" fill="white"/>
</svg>
